<?xml version="1.0" encoding="utf-8"?>
<!-- Generator: Adobe Illustrator 23.0.5, SVG Export Plug-In . SVG Version: 6.00 Build 0)  -->
<svg version="1.1" id="Capa_1" xmlns="http://www.w3.org/2000/svg" xmlns:xlink="http://www.w3.org/1999/xlink" x="0px" y="0px"
	 viewBox="0 0 500 75.2" style="enable-background:new 0 0 500 75.2;" xml:space="preserve">
<style type="text/css">
	.st0{fill:url(#SVGID_1_);}
	.st1{fill:#FFFFFF;}
</style>
<linearGradient id="SVGID_1_" gradientUnits="userSpaceOnUse" x1="186.3254" y1="110.0378" x2="312.207" y2="-107.9955">
	<stop  offset="0" style="stop-color:#29ABE2"/>
	<stop  offset="1" style="stop-color:#D2E5FF"/>
</linearGradient>
<path class="st0" d="M0.3,0.1c0,0,90.7,74.3,239.2,75.1S499.4,0.1,499.4,0.1H0.3z"/>
<title>Weather_Logo</title>
<path class="st1" d="M188.1,54l-6.9-27.1h3.7l3.2,13.7c0.8,3.4,1.5,6.8,2,9.4h0.1c0.4-2.7,1.3-5.9,2.2-9.4l3.6-13.7h3.6l3.4,13.7
	c0.8,3.2,1.5,6.4,1.9,9.3h0.1c0.6-3,1.3-6,2.2-9.4l3.6-13.7h3.6L206.6,54H203l-3.4-14.1c-0.7-2.9-1.3-5.9-1.8-8.8h-0.1
	c-0.5,3-1.2,5.9-2.1,8.8L191.8,54H188.1z"/>
<path class="st1" d="M218.1,44.9c0.1,4.8,3.1,6.8,6.7,6.8c1.8,0.1,3.7-0.3,5.4-1l0.6,2.5c-2,0.9-4.3,1.3-6.5,1.2
	c-6,0-9.6-3.9-9.6-9.8s3.4-10.5,9.1-10.5c6.4,0,8,5.6,8,9.2c0,0.5,0,1.1-0.1,1.6L218.1,44.9z M228.5,42.4c0-2.3-0.9-5.7-4.9-5.7
	c-3.6,0-5.1,3.3-5.4,5.7H228.5z"/>
<path class="st1" d="M247.1,54l-0.3-2.4h-0.1c-1.4,1.9-3.6,3-6,2.9c-3.1,0.2-5.7-2.1-5.9-5.1c0-0.2,0-0.3,0-0.5
	c0-4.7,4.2-7.3,11.7-7.2v-0.4c0-1.6-0.4-4.5-4.4-4.5c-1.8,0-3.5,0.5-5.1,1.4l-0.8-2.3c1.9-1.2,4.1-1.7,6.4-1.7c5.9,0,7.4,4,7.4,7.9
	v7.3c0,1.6,0.1,3.1,0.3,4.7L247.1,54z M246.6,44.1c-3.9-0.1-8.2,0.6-8.2,4.4c-0.1,1.7,1.1,3.2,2.9,3.4c0.2,0,0.3,0,0.5,0
	c2.1,0.1,4-1.3,4.7-3.3c0.1-0.4,0.2-0.7,0.2-1.1V44.1z"/>
<path class="st1" d="M259.8,28.9v5.6h5.1v2.7h-5.1v10.5c0,2.4,0.7,3.8,2.6,3.8c0.7,0,1.4-0.1,2-0.2l0.2,2.6c-1,0.4-2.1,0.5-3.1,0.5
	c-1.4,0.1-2.8-0.5-3.8-1.5c-1-1-1.4-2.8-1.4-5.1V37.2h-3v-2.7h3v-4.7L259.8,28.9z"/>
<path class="st1" d="M268.8,25.5h3.5v12.2h0.1c0.6-1,1.5-1.9,2.5-2.5c1.1-0.6,2.3-1,3.6-1c2.6,0,6.8,1.6,6.8,8.3V54h-3.5V42.8
	c0-3.1-1.2-5.8-4.5-5.8c-2.2,0-4.1,1.5-4.7,3.5c-0.2,0.5-0.3,1.1-0.2,1.7V54h-3.5V25.5z"/>
<path class="st1" d="M293.1,44.9c0.1,4.8,3.1,6.8,6.7,6.8c1.8,0.1,3.7-0.3,5.4-1l0.6,2.5c-2,0.9-4.3,1.3-6.5,1.2
	c-6,0-9.6-3.9-9.6-9.8s3.5-10.5,9.1-10.5c6.4,0,8,5.6,8,9.2c0,0.5,0,1.1-0.1,1.6L293.1,44.9z M303.4,42.4c0-2.3-0.9-5.7-4.9-5.7
	c-3.6,0-5.1,3.3-5.4,5.7H303.4z"/>
<path class="st1" d="M311.2,40.6c0-2.3,0-4.3-0.2-6.1h3.1l0.1,3.8h0.2c0.7-2.4,2.9-4.2,5.4-4.3c0.3,0,0.7,0,1,0.1v3.3
	c-0.4-0.1-0.8-0.1-1.2-0.1c-2.5,0-4.3,1.9-4.7,4.5c-0.1,0.5-0.2,1.1-0.2,1.6V54h-3.5L311.2,40.6z"/>
</svg>
